<svg width="458" height="60" viewBox="0 0 458 60" fill="none" xmlns="http://www.w3.org/2000/svg">
<g filter="url(#filter0_d)">
<rect x="4" width="450" height="52" rx="4" fill="white"/>
</g>
<path d="M421.146 17.127C421.25 17.7163 421.571 18.011 422.108 18.011C422.498 18.011 422.762 17.829 422.901 17.465C423.048 17.0923 423.122 16.4987 423.122 15.684C422.949 15.9353 422.706 16.1347 422.394 16.282C422.082 16.4293 421.731 16.503 421.341 16.503C420.509 16.503 419.833 16.243 419.313 15.723C418.793 15.203 418.533 14.4533 418.533 13.474C418.533 12.8327 418.667 12.2737 418.936 11.797C419.205 11.3117 419.586 10.939 420.08 10.679C420.583 10.419 421.168 10.289 421.835 10.289C423.161 10.289 424.084 10.692 424.604 11.498C425.133 12.2953 425.397 13.4567 425.397 14.982C425.397 16.6893 425.141 17.9633 424.63 18.804C424.127 19.6447 423.261 20.065 422.03 20.065C421.363 20.065 420.786 19.9307 420.301 19.662C419.824 19.3847 419.456 19.025 419.196 18.583C418.945 18.1323 418.802 17.647 418.767 17.127H421.146ZM421.952 14.527C422.255 14.527 422.494 14.4403 422.667 14.267C422.84 14.085 422.927 13.8423 422.927 13.539C422.927 13.1923 422.836 12.9323 422.654 12.759C422.481 12.5857 422.238 12.499 421.926 12.499C421.614 12.499 421.367 12.59 421.185 12.772C421.012 12.9453 420.925 13.1967 420.925 13.526C420.925 13.8293 421.012 14.072 421.185 14.254C421.367 14.436 421.623 14.527 421.952 14.527ZM426.391 15.112C426.391 13.6213 426.694 12.447 427.301 11.589C427.907 10.731 428.861 10.302 430.161 10.302C431.461 10.302 432.414 10.731 433.021 11.589C433.636 12.447 433.944 13.6213 433.944 15.112C433.944 16.62 433.64 17.803 433.034 18.661C432.427 19.519 431.469 19.948 430.161 19.948C428.852 19.948 427.894 19.519 427.288 18.661C426.69 17.803 426.391 16.62 426.391 15.112ZM431.422 15.112C431.422 14.332 431.339 13.7383 431.175 13.331C431.01 12.915 430.672 12.707 430.161 12.707C429.649 12.707 429.311 12.915 429.147 13.331C428.982 13.7383 428.9 14.332 428.9 15.112C428.9 15.9093 428.978 16.516 429.134 16.932C429.298 17.3393 429.641 17.543 430.161 17.543C430.681 17.543 431.019 17.3393 431.175 16.932C431.339 16.516 431.422 15.9093 431.422 15.112ZM434.766 12.941C434.766 12.2043 434.974 11.641 435.39 11.251C435.806 10.861 436.352 10.666 437.028 10.666C437.695 10.666 438.237 10.861 438.653 11.251C439.069 11.641 439.277 12.2043 439.277 12.941C439.277 13.669 439.069 14.2323 438.653 14.631C438.237 15.021 437.695 15.216 437.028 15.216C436.36 15.216 435.814 15.021 435.39 14.631C434.974 14.2323 434.766 13.669 434.766 12.941ZM443.996 10.809L439.069 20H436.625L441.552 10.809H443.996ZM437.015 12.161C436.659 12.161 436.482 12.421 436.482 12.941C436.482 13.461 436.659 13.721 437.015 13.721C437.188 13.721 437.322 13.656 437.418 13.526C437.522 13.396 437.574 13.201 437.574 12.941C437.574 12.681 437.522 12.486 437.418 12.356C437.322 12.226 437.188 12.161 437.015 12.161ZM441.344 17.855C441.344 17.127 441.552 16.568 441.968 16.178C442.392 15.7793 442.938 15.58 443.606 15.58C444.273 15.58 444.81 15.7793 445.218 16.178C445.634 16.568 445.842 17.127 445.842 17.855C445.842 18.5917 445.634 19.1593 445.218 19.558C444.81 19.948 444.273 20.143 443.606 20.143C442.938 20.143 442.392 19.948 441.968 19.558C441.552 19.1593 441.344 18.5917 441.344 17.855ZM443.593 17.075C443.229 17.075 443.047 17.335 443.047 17.855C443.047 18.3837 443.229 18.648 443.593 18.648C443.757 18.648 443.887 18.583 443.983 18.453C444.087 18.3143 444.139 18.115 444.139 17.855C444.139 17.6037 444.087 17.413 443.983 17.283C443.887 17.1443 443.757 17.075 443.593 17.075Z" fill="#415733"/>
<path d="M17.799 7.835V13.906C17.799 14.9373 17.5173 15.726 16.954 16.272C16.3993 16.818 15.6323 17.091 14.653 17.091C13.613 17.091 12.781 16.8007 12.157 16.22C11.5417 15.6393 11.234 14.803 11.234 13.711H13.756C13.7647 14.4303 14.029 14.79 14.549 14.79C15.017 14.79 15.251 14.4953 15.251 13.906V7.835H17.799ZM25.1178 15.505H21.8678L21.3738 17H18.6958L22.0368 7.835H24.9748L28.3028 17H25.6118L25.1178 15.505ZM24.4808 13.555L23.4928 10.591L22.5178 13.555H24.4808ZM38.0513 7.835L34.8923 17H31.6293L28.4573 7.835H31.1873L33.2673 14.452L35.3343 7.835H38.0513ZM44.6432 15.505H41.3932L40.8992 17H38.2212L41.5622 7.835H44.5002L47.8282 17H45.1372L44.6432 15.505ZM44.0062 13.555L43.0182 10.591L42.0432 13.555H44.0062ZM52.1167 17.091C51.0507 17.091 50.1753 16.8397 49.4907 16.337C48.806 15.8257 48.4377 15.0977 48.3857 14.153H51.1027C51.1287 14.4737 51.224 14.7077 51.3887 14.855C51.5533 15.0023 51.7657 15.076 52.0257 15.076C52.2597 15.076 52.4503 15.0197 52.5977 14.907C52.7537 14.7857 52.8317 14.621 52.8317 14.413C52.8317 14.1443 52.706 13.9363 52.4547 13.789C52.2033 13.6417 51.796 13.477 51.2327 13.295C50.6347 13.0957 50.1493 12.905 49.7767 12.723C49.4127 12.5323 49.092 12.2593 48.8147 11.904C48.546 11.54 48.4117 11.0677 48.4117 10.487C48.4117 9.89767 48.559 9.395 48.8537 8.979C49.1483 8.55433 49.5557 8.23367 50.0757 8.017C50.5957 7.80033 51.185 7.692 51.8437 7.692C52.9097 7.692 53.759 7.94333 54.3917 8.446C55.033 8.94 55.3753 9.63767 55.4187 10.539H52.6497C52.641 10.2617 52.5543 10.0537 52.3897 9.915C52.2337 9.77633 52.03 9.707 51.7787 9.707C51.588 9.707 51.432 9.76333 51.3107 9.876C51.1893 9.98867 51.1287 10.149 51.1287 10.357C51.1287 10.5303 51.1937 10.682 51.3237 10.812C51.4623 10.9333 51.6313 11.0417 51.8307 11.137C52.03 11.2237 52.3247 11.3363 52.7147 11.475C53.2953 11.6743 53.772 11.8737 54.1447 12.073C54.526 12.2637 54.851 12.5367 55.1197 12.892C55.397 13.2387 55.5357 13.6807 55.5357 14.218C55.5357 14.764 55.397 15.2537 55.1197 15.687C54.851 16.1203 54.4567 16.4627 53.9367 16.714C53.4253 16.9653 52.8187 17.091 52.1167 17.091ZM56.4082 12.398C56.4082 11.4967 56.5945 10.695 56.9672 9.993C57.3485 9.28233 57.8859 8.732 58.5792 8.342C59.2725 7.94333 60.0699 7.744 60.9712 7.744C62.1152 7.744 63.0772 8.05167 63.8572 8.667C64.6372 9.27367 65.1399 10.1013 65.3652 11.15H62.6222C62.4575 10.8033 62.2279 10.539 61.9332 10.357C61.6472 10.175 61.3135 10.084 60.9322 10.084C60.3429 10.084 59.8705 10.2963 59.5152 10.721C59.1685 11.137 58.9952 11.696 58.9952 12.398C58.9952 13.1087 59.1685 13.6763 59.5152 14.101C59.8705 14.517 60.3429 14.725 60.9322 14.725C61.3135 14.725 61.6472 14.634 61.9332 14.452C62.2279 14.27 62.4575 14.0057 62.6222 13.659H65.3652C65.1399 14.7077 64.6372 15.5397 63.8572 16.155C63.0772 16.7617 62.1152 17.065 60.9712 17.065C60.0699 17.065 59.2725 16.87 58.5792 16.48C57.8859 16.0813 57.3485 15.531 56.9672 14.829C56.5945 14.1183 56.4082 13.308 56.4082 12.398ZM71.2128 17L69.3928 13.62H69.1198V17H66.5718V7.835H70.5888C71.3254 7.835 71.9494 7.965 72.4608 8.225C72.9721 8.47633 73.3578 8.82733 73.6178 9.278C73.8778 9.72 74.0078 10.2183 74.0078 10.773C74.0078 11.397 73.8344 11.9473 73.4877 12.424C73.1498 12.892 72.6514 13.2257 71.9928 13.425L74.0598 17H71.2128ZM69.1198 11.878H70.3808C70.7274 11.878 70.9874 11.7957 71.1608 11.631C71.3341 11.4663 71.4208 11.228 71.4208 10.916C71.4208 10.6213 71.3298 10.3917 71.1478 10.227C70.9744 10.0537 70.7188 9.967 70.3808 9.967H69.1198V11.878ZM77.7145 7.835V17H75.1665V7.835H77.7145ZM86.4065 10.89C86.4065 11.4447 86.2765 11.9517 86.0165 12.411C85.7652 12.8617 85.3795 13.2257 84.8595 13.503C84.3482 13.7717 83.7198 13.906 82.9745 13.906H81.7135V17H79.1655V7.835H82.9745C83.7112 7.835 84.3352 7.965 84.8465 8.225C85.3665 8.485 85.7565 8.84467 86.0165 9.304C86.2765 9.76333 86.4065 10.292 86.4065 10.89ZM82.7275 11.878C83.4468 11.878 83.8065 11.5487 83.8065 10.89C83.8065 10.2227 83.4468 9.889 82.7275 9.889H81.7135V11.878H82.7275ZM94.3331 7.835V9.863H91.8891V17H89.3411V9.863H86.9231V7.835H94.3331Z" fill="#415733"/>
<rect x="4" y="46" width="429" height="7" fill="#00B071"/>
<defs>
<filter id="filter0_d" x="0" y="0" width="458" height="60" filterUnits="userSpaceOnUse" color-interpolation-filters="sRGB">
<feFlood flood-opacity="0" result="BackgroundImageFix"/>
<feColorMatrix in="SourceAlpha" type="matrix" values="0 0 0 0 0 0 0 0 0 0 0 0 0 0 0 0 0 0 127 0"/>
<feOffset dy="4"/>
<feGaussianBlur stdDeviation="2"/>
<feColorMatrix type="matrix" values="0 0 0 0 0 0 0 0 0 0 0 0 0 0 0 0 0 0 0.25 0"/>
<feBlend mode="normal" in2="BackgroundImageFix" result="effect1_dropShadow"/>
<feBlend mode="normal" in="SourceGraphic" in2="effect1_dropShadow" result="shape"/>
</filter>
</defs>
</svg>
