<svg width="458" height="60" viewBox="0 0 458 60" fill="none" xmlns="http://www.w3.org/2000/svg">
<g filter="url(#filter0_d)">
<rect x="4" width="450" height="52" rx="4" fill="white"/>
</g>
<path d="M19.931 11.835V21H17.383V17.321H14.276V21H11.728V11.835H14.276V15.28H17.383V11.835H19.931ZM28.2921 11.835V13.863H25.8481V21H23.3001V13.863H20.8821V11.835H28.2921ZM39.9338 11.835V21H37.3858V15.943L35.6568 21H33.5248L31.7828 15.904V21H29.2348V11.835H32.3158L34.6168 17.789L36.8658 11.835H39.9338ZM43.9323 19.05H46.7793V21H41.3843V11.835H43.9323V19.05ZM54.465 13.746H50.565V15.189C50.7297 15.0157 50.955 14.877 51.241 14.773C51.527 14.669 51.8433 14.617 52.19 14.617C52.814 14.617 53.334 14.76 53.75 15.046C54.1747 15.332 54.4867 15.709 54.686 16.177C54.8853 16.645 54.985 17.1563 54.985 17.711C54.985 18.7337 54.6947 19.5397 54.114 20.129C53.5333 20.7097 52.7273 21 51.696 21C50.9767 21 50.3527 20.8787 49.824 20.636C49.304 20.3847 48.9053 20.038 48.628 19.596C48.3507 19.154 48.2077 18.647 48.199 18.075H50.682C50.708 18.2743 50.7947 18.4477 50.942 18.595C51.0893 18.7423 51.306 18.816 51.592 18.816C51.8953 18.816 52.125 18.712 52.281 18.504C52.437 18.296 52.515 18.0187 52.515 17.672C52.515 17.334 52.4327 17.0783 52.268 16.905C52.1033 16.723 51.865 16.632 51.553 16.632C51.319 16.632 51.1283 16.6927 50.981 16.814C50.8423 16.9267 50.76 17.0697 50.734 17.243H48.251V11.497H54.465V13.746Z" fill="#415733"/>
<path d="M420.041 15.839C419.27 15.4143 418.884 14.7513 418.884 13.85C418.884 13.382 419.005 12.9573 419.248 12.576C419.499 12.186 419.876 11.8783 420.379 11.653C420.882 11.419 421.501 11.302 422.238 11.302C422.975 11.302 423.594 11.419 424.097 11.653C424.6 11.8783 424.972 12.186 425.215 12.576C425.466 12.9573 425.592 13.382 425.592 13.85C425.592 14.3093 425.488 14.708 425.28 15.046C425.081 15.3753 424.799 15.6397 424.435 15.839C424.886 16.073 425.228 16.385 425.462 16.775C425.696 17.165 425.813 17.6243 425.813 18.153C425.813 18.7857 425.653 19.3317 425.332 19.791C425.011 20.2417 424.578 20.584 424.032 20.818C423.495 21.052 422.897 21.169 422.238 21.169C421.579 21.169 420.977 21.052 420.431 20.818C419.894 20.584 419.465 20.2417 419.144 19.791C418.823 19.3317 418.663 18.7857 418.663 18.153C418.663 17.6243 418.78 17.165 419.014 16.775C419.248 16.385 419.59 16.073 420.041 15.839ZM423.096 14.253C423.096 13.9497 423.018 13.7157 422.862 13.551C422.706 13.3777 422.498 13.291 422.238 13.291C421.987 13.291 421.779 13.3777 421.614 13.551C421.458 13.7243 421.38 13.9583 421.38 14.253C421.38 14.5477 421.458 14.7773 421.614 14.942C421.779 15.1067 421.987 15.189 422.238 15.189C422.489 15.189 422.693 15.1067 422.849 14.942C423.014 14.7773 423.096 14.5477 423.096 14.253ZM422.238 16.931C421.909 16.931 421.64 17.0307 421.432 17.23C421.233 17.4207 421.133 17.6807 421.133 18.01C421.133 18.322 421.233 18.5777 421.432 18.777C421.631 18.9763 421.9 19.076 422.238 19.076C422.576 19.076 422.84 18.9763 423.031 18.777C423.23 18.5777 423.33 18.322 423.33 18.01C423.33 17.6807 423.23 17.4207 423.031 17.23C422.832 17.0307 422.567 16.931 422.238 16.931ZM427 16.112C427 14.6213 427.303 13.447 427.91 12.589C428.517 11.731 429.47 11.302 430.77 11.302C432.07 11.302 433.023 11.731 433.63 12.589C434.245 13.447 434.553 14.6213 434.553 16.112C434.553 17.62 434.25 18.803 433.643 19.661C433.036 20.519 432.079 20.948 430.77 20.948C429.461 20.948 428.504 20.519 427.897 19.661C427.299 18.803 427 17.62 427 16.112ZM432.031 16.112C432.031 15.332 431.949 14.7383 431.784 14.331C431.619 13.915 431.281 13.707 430.77 13.707C430.259 13.707 429.921 13.915 429.756 14.331C429.591 14.7383 429.509 15.332 429.509 16.112C429.509 16.9093 429.587 17.516 429.743 17.932C429.908 18.3393 430.25 18.543 430.77 18.543C431.29 18.543 431.628 18.3393 431.784 17.932C431.949 17.516 432.031 16.9093 432.031 16.112ZM435.375 13.941C435.375 13.2043 435.583 12.641 435.999 12.251C436.415 11.861 436.961 11.666 437.637 11.666C438.304 11.666 438.846 11.861 439.262 12.251C439.678 12.641 439.886 13.2043 439.886 13.941C439.886 14.669 439.678 15.2323 439.262 15.631C438.846 16.021 438.304 16.216 437.637 16.216C436.97 16.216 436.424 16.021 435.999 15.631C435.583 15.2323 435.375 14.669 435.375 13.941ZM444.605 11.809L439.678 21H437.234L442.161 11.809H444.605ZM437.624 13.161C437.269 13.161 437.091 13.421 437.091 13.941C437.091 14.461 437.269 14.721 437.624 14.721C437.797 14.721 437.932 14.656 438.027 14.526C438.131 14.396 438.183 14.201 438.183 13.941C438.183 13.681 438.131 13.486 438.027 13.356C437.932 13.226 437.797 13.161 437.624 13.161ZM441.953 18.855C441.953 18.127 442.161 17.568 442.577 17.178C443.002 16.7793 443.548 16.58 444.215 16.58C444.882 16.58 445.42 16.7793 445.827 17.178C446.243 17.568 446.451 18.127 446.451 18.855C446.451 19.5917 446.243 20.1593 445.827 20.558C445.42 20.948 444.882 21.143 444.215 21.143C443.548 21.143 443.002 20.948 442.577 20.558C442.161 20.1593 441.953 19.5917 441.953 18.855ZM444.202 18.075C443.838 18.075 443.656 18.335 443.656 18.855C443.656 19.3837 443.838 19.648 444.202 19.648C444.367 19.648 444.497 19.583 444.592 19.453C444.696 19.3143 444.748 19.115 444.748 18.855C444.748 18.6037 444.696 18.413 444.592 18.283C444.497 18.1443 444.367 18.075 444.202 18.075Z" fill="#415733"/>
<rect x="4" y="45" width="371" height="7" fill="#00B071"/>
<defs>
<filter id="filter0_d" x="0" y="0" width="458" height="60" filterUnits="userSpaceOnUse" color-interpolation-filters="sRGB">
<feFlood flood-opacity="0" result="BackgroundImageFix"/>
<feColorMatrix in="SourceAlpha" type="matrix" values="0 0 0 0 0 0 0 0 0 0 0 0 0 0 0 0 0 0 127 0"/>
<feOffset dy="4"/>
<feGaussianBlur stdDeviation="2"/>
<feColorMatrix type="matrix" values="0 0 0 0 0 0 0 0 0 0 0 0 0 0 0 0 0 0 0.25 0"/>
<feBlend mode="normal" in2="BackgroundImageFix" result="effect1_dropShadow"/>
<feBlend mode="normal" in="SourceGraphic" in2="effect1_dropShadow" result="shape"/>
</filter>
</defs>
</svg>
