<svg width="458" height="56" viewBox="0 0 458 56" fill="none" xmlns="http://www.w3.org/2000/svg">
<g filter="url(#filter0_d)">
<rect x="4" width="450" height="48" rx="4" fill="white"/>
</g>
<path d="M17.526 19.9665H14.276L13.782 21.4615H11.104L14.445 12.2965H17.383L20.711 21.4615H18.02L17.526 19.9665ZM16.889 18.0165L15.901 15.0525L14.926 18.0165H16.889ZM30.0305 21.4615H27.4825L24.0895 16.3395V21.4615H21.5415V12.2965H24.0895L27.4825 17.4835V12.2965H30.0305V21.4615ZM37.3319 15.3125C37.1846 15.0699 36.9809 14.8835 36.7209 14.7535C36.4696 14.6235 36.1706 14.5585 35.8239 14.5585C35.1826 14.5585 34.6756 14.7665 34.3029 15.1825C33.9389 15.5985 33.7569 16.1575 33.7569 16.8595C33.7569 17.6482 33.9519 18.2505 34.3419 18.6665C34.7406 19.0739 35.3169 19.2775 36.0709 19.2775C36.9636 19.2775 37.6006 18.8745 37.9819 18.0685H35.4209V16.2355H40.1789V18.7055C39.9796 19.1909 39.6849 19.6459 39.2949 20.0705C38.9136 20.4952 38.4282 20.8462 37.8389 21.1235C37.2496 21.3922 36.5779 21.5265 35.8239 21.5265C34.9052 21.5265 34.0906 21.3315 33.3799 20.9415C32.6779 20.5429 32.1319 19.9925 31.7419 19.2905C31.3606 18.5799 31.1699 17.7695 31.1699 16.8595C31.1699 15.9582 31.3606 15.1565 31.7419 14.4545C32.1319 13.7439 32.6779 13.1935 33.3799 12.8035C34.0819 12.4049 34.8922 12.2055 35.8109 12.2055C36.9636 12.2055 37.9169 12.4829 38.6709 13.0375C39.4249 13.5922 39.8929 14.3505 40.0749 15.3125H37.3319ZM43.8168 12.2965V17.6135C43.8168 18.1075 43.9294 18.4889 44.1548 18.7575C44.3888 19.0262 44.7398 19.1605 45.2078 19.1605C45.6758 19.1605 46.0268 19.0262 46.2608 18.7575C46.5034 18.4802 46.6248 18.0989 46.6248 17.6135V12.2965H49.1728V17.6135C49.1728 18.4542 48.9951 19.1735 48.6398 19.7715C48.2844 20.3609 47.7991 20.8072 47.1838 21.1105C46.5771 21.4052 45.9011 21.5525 45.1558 21.5525C44.4104 21.5525 43.7431 21.4052 43.1538 21.1105C42.5731 20.8072 42.1138 20.3609 41.7758 19.7715C41.4464 19.1822 41.2818 18.4629 41.2818 17.6135V12.2965H43.8168ZM53.1237 19.5115H55.9707V21.4615H50.5757V12.2965H53.1237V19.5115ZM62.7594 19.9665H59.5094L59.0154 21.4615H56.3374L59.6784 12.2965H62.6164L65.9444 21.4615H63.2534L62.7594 19.9665ZM62.1224 18.0165L61.1344 15.0525L60.1594 18.0165H62.1224ZM71.4159 21.4615L69.5959 18.0815H69.3229V21.4615H66.7749V12.2965H70.7919C71.5285 12.2965 72.1525 12.4265 72.6639 12.6865C73.1752 12.9379 73.5609 13.2889 73.8209 13.7395C74.0809 14.1815 74.2109 14.6799 74.2109 15.2345C74.2109 15.8585 74.0375 16.4089 73.6909 16.8855C73.3529 17.3535 72.8545 17.6872 72.1959 17.8865L74.2629 21.4615H71.4159ZM69.3229 16.3395H70.5839C70.9305 16.3395 71.1905 16.2572 71.3639 16.0925C71.5372 15.9279 71.6239 15.6895 71.6239 15.3775C71.6239 15.0829 71.5329 14.8532 71.3509 14.6885C71.1775 14.5152 70.9219 14.4285 70.5839 14.4285H69.3229V16.3395Z" fill="#415733"/>
<path opacity="0.9" d="M421.146 18.127C421.25 18.7163 421.571 19.011 422.108 19.011C422.498 19.011 422.762 18.829 422.901 18.465C423.048 18.0923 423.122 17.4987 423.122 16.684C422.949 16.9353 422.706 17.1347 422.394 17.282C422.082 17.4293 421.731 17.503 421.341 17.503C420.509 17.503 419.833 17.243 419.313 16.723C418.793 16.203 418.533 15.4533 418.533 14.474C418.533 13.8327 418.667 13.2737 418.936 12.797C419.205 12.3117 419.586 11.939 420.08 11.679C420.583 11.419 421.168 11.289 421.835 11.289C423.161 11.289 424.084 11.692 424.604 12.498C425.133 13.2953 425.397 14.4567 425.397 15.982C425.397 17.6893 425.141 18.9633 424.63 19.804C424.127 20.6447 423.261 21.065 422.03 21.065C421.363 21.065 420.786 20.9307 420.301 20.662C419.824 20.3847 419.456 20.025 419.196 19.583C418.945 19.1323 418.802 18.647 418.767 18.127H421.146ZM421.952 15.527C422.255 15.527 422.494 15.4403 422.667 15.267C422.84 15.085 422.927 14.8423 422.927 14.539C422.927 14.1923 422.836 13.9323 422.654 13.759C422.481 13.5857 422.238 13.499 421.926 13.499C421.614 13.499 421.367 13.59 421.185 13.772C421.012 13.9453 420.925 14.1967 420.925 14.526C420.925 14.8293 421.012 15.072 421.185 15.254C421.367 15.436 421.623 15.527 421.952 15.527ZM426.391 16.112C426.391 14.6213 426.694 13.447 427.301 12.589C427.907 11.731 428.861 11.302 430.161 11.302C431.461 11.302 432.414 11.731 433.021 12.589C433.636 13.447 433.944 14.6213 433.944 16.112C433.944 17.62 433.64 18.803 433.034 19.661C432.427 20.519 431.469 20.948 430.161 20.948C428.852 20.948 427.894 20.519 427.288 19.661C426.69 18.803 426.391 17.62 426.391 16.112ZM431.422 16.112C431.422 15.332 431.339 14.7383 431.175 14.331C431.01 13.915 430.672 13.707 430.161 13.707C429.649 13.707 429.311 13.915 429.147 14.331C428.982 14.7383 428.9 15.332 428.9 16.112C428.9 16.9093 428.978 17.516 429.134 17.932C429.298 18.3393 429.641 18.543 430.161 18.543C430.681 18.543 431.019 18.3393 431.175 17.932C431.339 17.516 431.422 16.9093 431.422 16.112ZM434.766 13.941C434.766 13.2043 434.974 12.641 435.39 12.251C435.806 11.861 436.352 11.666 437.028 11.666C437.695 11.666 438.237 11.861 438.653 12.251C439.069 12.641 439.277 13.2043 439.277 13.941C439.277 14.669 439.069 15.2323 438.653 15.631C438.237 16.021 437.695 16.216 437.028 16.216C436.36 16.216 435.814 16.021 435.39 15.631C434.974 15.2323 434.766 14.669 434.766 13.941ZM443.996 11.809L439.069 21H436.625L441.552 11.809H443.996ZM437.015 13.161C436.659 13.161 436.482 13.421 436.482 13.941C436.482 14.461 436.659 14.721 437.015 14.721C437.188 14.721 437.322 14.656 437.418 14.526C437.522 14.396 437.574 14.201 437.574 13.941C437.574 13.681 437.522 13.486 437.418 13.356C437.322 13.226 437.188 13.161 437.015 13.161ZM441.344 18.855C441.344 18.127 441.552 17.568 441.968 17.178C442.392 16.7793 442.938 16.58 443.606 16.58C444.273 16.58 444.81 16.7793 445.218 17.178C445.634 17.568 445.842 18.127 445.842 18.855C445.842 19.5917 445.634 20.1593 445.218 20.558C444.81 20.948 444.273 21.143 443.606 21.143C442.938 21.143 442.392 20.948 441.968 20.558C441.552 20.1593 441.344 19.5917 441.344 18.855ZM443.593 18.075C443.229 18.075 443.047 18.335 443.047 18.855C443.047 19.3837 443.229 19.648 443.593 19.648C443.757 19.648 443.887 19.583 443.983 19.453C444.087 19.3143 444.139 19.115 444.139 18.855C444.139 18.6037 444.087 18.413 443.983 18.283C443.887 18.1443 443.757 18.075 443.593 18.075Z" fill="#415733"/>
<rect x="4" y="41" width="429" height="7" fill="#00B071"/>
<defs>
<filter id="filter0_d" x="0" y="0" width="458" height="56" filterUnits="userSpaceOnUse" color-interpolation-filters="sRGB">
<feFlood flood-opacity="0" result="BackgroundImageFix"/>
<feColorMatrix in="SourceAlpha" type="matrix" values="0 0 0 0 0 0 0 0 0 0 0 0 0 0 0 0 0 0 127 0"/>
<feOffset dy="4"/>
<feGaussianBlur stdDeviation="2"/>
<feColorMatrix type="matrix" values="0 0 0 0 0 0 0 0 0 0 0 0 0 0 0 0 0 0 0.25 0"/>
<feBlend mode="normal" in2="BackgroundImageFix" result="effect1_dropShadow"/>
<feBlend mode="normal" in="SourceGraphic" in2="effect1_dropShadow" result="shape"/>
</filter>
</defs>
</svg>
