<svg width="458" height="60" viewBox="0 0 458 60" fill="none" xmlns="http://www.w3.org/2000/svg">
<g filter="url(#filter0_d)">
<rect x="4" width="450" height="52" rx="4" fill="white"/>
</g>
<rect x="4" y="45" width="414" height="7" fill="#00B071"/>
<path d="M11.416 17.398C11.416 16.4967 11.6023 15.695 11.975 14.993C12.3563 14.2823 12.8937 13.732 13.587 13.342C14.2803 12.9433 15.0777 12.744 15.979 12.744C17.123 12.744 18.085 13.0517 18.865 13.667C19.645 14.2737 20.1477 15.1013 20.373 16.15H17.63C17.4653 15.8033 17.2357 15.539 16.941 15.357C16.655 15.175 16.3213 15.084 15.94 15.084C15.3507 15.084 14.8783 15.2963 14.523 15.721C14.1763 16.137 14.003 16.696 14.003 17.398C14.003 18.1087 14.1763 18.6763 14.523 19.101C14.8783 19.517 15.3507 19.725 15.94 19.725C16.3213 19.725 16.655 19.634 16.941 19.452C17.2357 19.27 17.4653 19.0057 17.63 18.659H20.373C20.1477 19.7077 19.645 20.5397 18.865 21.155C18.085 21.7617 17.123 22.065 15.979 22.065C15.0777 22.065 14.2803 21.87 13.587 21.48C12.8937 21.0813 12.3563 20.531 11.975 19.829C11.6023 19.1183 11.416 18.308 11.416 17.398ZM25.0376 22.091C23.9716 22.091 23.0962 21.8397 22.4116 21.337C21.7269 20.8257 21.3586 20.0977 21.3066 19.153H24.0236C24.0496 19.4737 24.1449 19.7077 24.3096 19.855C24.4742 20.0023 24.6866 20.076 24.9466 20.076C25.1806 20.076 25.3712 20.0197 25.5186 19.907C25.6746 19.7857 25.7526 19.621 25.7526 19.413C25.7526 19.1443 25.6269 18.9363 25.3756 18.789C25.1242 18.6417 24.7169 18.477 24.1536 18.295C23.5556 18.0957 23.0702 17.905 22.6976 17.723C22.3336 17.5323 22.0129 17.2593 21.7356 16.904C21.4669 16.54 21.3326 16.0677 21.3326 15.487C21.3326 14.8977 21.4799 14.395 21.7746 13.979C22.0692 13.5543 22.4766 13.2337 22.9966 13.017C23.5166 12.8003 24.1059 12.692 24.7646 12.692C25.8306 12.692 26.6799 12.9433 27.3126 13.446C27.9539 13.94 28.2962 14.6377 28.3396 15.539H25.5706C25.5619 15.2617 25.4752 15.0537 25.3106 14.915C25.1546 14.7763 24.9509 14.707 24.6996 14.707C24.5089 14.707 24.3529 14.7633 24.2316 14.876C24.1102 14.9887 24.0496 15.149 24.0496 15.357C24.0496 15.5303 24.1146 15.682 24.2446 15.812C24.3832 15.9333 24.5522 16.0417 24.7516 16.137C24.9509 16.2237 25.2456 16.3363 25.6356 16.475C26.2162 16.6743 26.6929 16.8737 27.0656 17.073C27.4469 17.2637 27.7719 17.5367 28.0406 17.892C28.3179 18.2387 28.4566 18.6807 28.4566 19.218C28.4566 19.764 28.3179 20.2537 28.0406 20.687C27.7719 21.1203 27.3776 21.4627 26.8576 21.714C26.3462 21.9653 25.7396 22.091 25.0376 22.091ZM33.0991 22.091C32.0331 22.091 31.1578 21.8397 30.4731 21.337C29.7884 20.8257 29.4201 20.0977 29.3681 19.153H32.0851C32.1111 19.4737 32.2064 19.7077 32.3711 19.855C32.5358 20.0023 32.7481 20.076 33.0081 20.076C33.2421 20.076 33.4328 20.0197 33.5801 19.907C33.7361 19.7857 33.8141 19.621 33.8141 19.413C33.8141 19.1443 33.6884 18.9363 33.4371 18.789C33.1858 18.6417 32.7784 18.477 32.2151 18.295C31.6171 18.0957 31.1318 17.905 30.7591 17.723C30.3951 17.5323 30.0744 17.2593 29.7971 16.904C29.5284 16.54 29.3941 16.0677 29.3941 15.487C29.3941 14.8977 29.5414 14.395 29.8361 13.979C30.1308 13.5543 30.5381 13.2337 31.0581 13.017C31.5781 12.8003 32.1674 12.692 32.8261 12.692C33.8921 12.692 34.7414 12.9433 35.3741 13.446C36.0154 13.94 36.3578 14.6377 36.4011 15.539H33.6321C33.6234 15.2617 33.5368 15.0537 33.3721 14.915C33.2161 14.7763 33.0124 14.707 32.7611 14.707C32.5704 14.707 32.4144 14.7633 32.2931 14.876C32.1718 14.9887 32.1111 15.149 32.1111 15.357C32.1111 15.5303 32.1761 15.682 32.3061 15.812C32.4448 15.9333 32.6138 16.0417 32.8131 16.137C33.0124 16.2237 33.3071 16.3363 33.6971 16.475C34.2778 16.6743 34.7544 16.8737 35.1271 17.073C35.5084 17.2637 35.8334 17.5367 36.1021 17.892C36.3794 18.2387 36.5181 18.6807 36.5181 19.218C36.5181 19.764 36.3794 20.2537 36.1021 20.687C35.8334 21.1203 35.4391 21.4627 34.9191 21.714C34.4078 21.9653 33.8011 22.091 33.0991 22.091ZM37.5986 15.331C37.6333 14.3517 37.9366 13.602 38.5086 13.082C39.0806 12.5533 39.8779 12.289 40.9006 12.289C41.5679 12.289 42.1356 12.406 42.6036 12.64C43.0803 12.8653 43.4399 13.1773 43.6826 13.576C43.9253 13.966 44.0466 14.408 44.0466 14.902C44.0466 15.4913 43.9036 15.9637 43.6176 16.319C43.3316 16.6657 43.0066 16.8997 42.6426 17.021V17.073C43.6913 17.463 44.2156 18.2083 44.2156 19.309C44.2156 19.855 44.0899 20.336 43.8386 20.752C43.5873 21.168 43.2233 21.493 42.7466 21.727C42.2699 21.961 41.7023 22.078 41.0436 22.078C39.9603 22.078 39.1023 21.818 38.4696 21.298C37.8456 20.7693 37.5206 19.9633 37.4946 18.88H39.9776C39.9603 19.2267 40.0339 19.4953 40.1986 19.686C40.3633 19.8767 40.6103 19.972 40.9396 19.972C41.1909 19.972 41.3859 19.894 41.5246 19.738C41.6719 19.582 41.7456 19.374 41.7456 19.114C41.7456 18.7847 41.6373 18.542 41.4206 18.386C41.2126 18.23 40.8703 18.152 40.3936 18.152H39.9386V16.085H40.3806C40.7099 16.0937 40.9873 16.0417 41.2126 15.929C41.4466 15.8077 41.5636 15.5693 41.5636 15.214C41.5636 14.9453 41.4986 14.746 41.3686 14.616C41.2386 14.4773 41.0609 14.408 40.8356 14.408C40.5843 14.408 40.3979 14.499 40.2766 14.681C40.1639 14.8543 40.0989 15.071 40.0816 15.331H37.5986Z" fill="#415733"/>
<path d="M420.041 11.839C419.27 11.4143 418.884 10.7513 418.884 9.85C418.884 9.382 419.005 8.95733 419.248 8.576C419.499 8.186 419.876 7.87833 420.379 7.653C420.882 7.419 421.501 7.302 422.238 7.302C422.975 7.302 423.594 7.419 424.097 7.653C424.6 7.87833 424.972 8.186 425.215 8.576C425.466 8.95733 425.592 9.382 425.592 9.85C425.592 10.3093 425.488 10.708 425.28 11.046C425.081 11.3753 424.799 11.6397 424.435 11.839C424.886 12.073 425.228 12.385 425.462 12.775C425.696 13.165 425.813 13.6243 425.813 14.153C425.813 14.7857 425.653 15.3317 425.332 15.791C425.011 16.2417 424.578 16.584 424.032 16.818C423.495 17.052 422.897 17.169 422.238 17.169C421.579 17.169 420.977 17.052 420.431 16.818C419.894 16.584 419.465 16.2417 419.144 15.791C418.823 15.3317 418.663 14.7857 418.663 14.153C418.663 13.6243 418.78 13.165 419.014 12.775C419.248 12.385 419.59 12.073 420.041 11.839ZM423.096 10.253C423.096 9.94967 423.018 9.71567 422.862 9.551C422.706 9.37767 422.498 9.291 422.238 9.291C421.987 9.291 421.779 9.37767 421.614 9.551C421.458 9.72433 421.38 9.95833 421.38 10.253C421.38 10.5477 421.458 10.7773 421.614 10.942C421.779 11.1067 421.987 11.189 422.238 11.189C422.489 11.189 422.693 11.1067 422.849 10.942C423.014 10.7773 423.096 10.5477 423.096 10.253ZM422.238 12.931C421.909 12.931 421.64 13.0307 421.432 13.23C421.233 13.4207 421.133 13.6807 421.133 14.01C421.133 14.322 421.233 14.5777 421.432 14.777C421.631 14.9763 421.9 15.076 422.238 15.076C422.576 15.076 422.84 14.9763 423.031 14.777C423.23 14.5777 423.33 14.322 423.33 14.01C423.33 13.6807 423.23 13.4207 423.031 13.23C422.832 13.0307 422.567 12.931 422.238 12.931ZM433.916 9.746H430.016V11.189C430.181 11.0157 430.406 10.877 430.692 10.773C430.978 10.669 431.294 10.617 431.641 10.617C432.265 10.617 432.785 10.76 433.201 11.046C433.626 11.332 433.938 11.709 434.137 12.177C434.336 12.645 434.436 13.1563 434.436 13.711C434.436 14.7337 434.146 15.5397 433.565 16.129C432.984 16.7097 432.178 17 431.147 17C430.428 17 429.804 16.8787 429.275 16.636C428.755 16.3847 428.356 16.038 428.079 15.596C427.802 15.154 427.659 14.647 427.65 14.075H430.133C430.159 14.2743 430.246 14.4477 430.393 14.595C430.54 14.7423 430.757 14.816 431.043 14.816C431.346 14.816 431.576 14.712 431.732 14.504C431.888 14.296 431.966 14.0187 431.966 13.672C431.966 13.334 431.884 13.0783 431.719 12.905C431.554 12.723 431.316 12.632 431.004 12.632C430.77 12.632 430.579 12.6927 430.432 12.814C430.293 12.9267 430.211 13.0697 430.185 13.243H427.702V7.497H433.916V9.746ZM435.35 9.941C435.35 9.20433 435.558 8.641 435.974 8.251C436.39 7.861 436.936 7.666 437.612 7.666C438.279 7.666 438.821 7.861 439.237 8.251C439.653 8.641 439.861 9.20433 439.861 9.941C439.861 10.669 439.653 11.2323 439.237 11.631C438.821 12.021 438.279 12.216 437.612 12.216C436.944 12.216 436.398 12.021 435.974 11.631C435.558 11.2323 435.35 10.669 435.35 9.941ZM444.58 7.809L439.653 17H437.209L442.136 7.809H444.58ZM437.599 9.161C437.243 9.161 437.066 9.421 437.066 9.941C437.066 10.461 437.243 10.721 437.599 10.721C437.772 10.721 437.906 10.656 438.002 10.526C438.106 10.396 438.158 10.201 438.158 9.941C438.158 9.681 438.106 9.486 438.002 9.356C437.906 9.226 437.772 9.161 437.599 9.161ZM441.928 14.855C441.928 14.127 442.136 13.568 442.552 13.178C442.976 12.7793 443.522 12.58 444.19 12.58C444.857 12.58 445.394 12.7793 445.802 13.178C446.218 13.568 446.426 14.127 446.426 14.855C446.426 15.5917 446.218 16.1593 445.802 16.558C445.394 16.948 444.857 17.143 444.19 17.143C443.522 17.143 442.976 16.948 442.552 16.558C442.136 16.1593 441.928 15.5917 441.928 14.855ZM444.177 14.075C443.813 14.075 443.631 14.335 443.631 14.855C443.631 15.3837 443.813 15.648 444.177 15.648C444.341 15.648 444.471 15.583 444.567 15.453C444.671 15.3143 444.723 15.115 444.723 14.855C444.723 14.6037 444.671 14.413 444.567 14.283C444.471 14.1443 444.341 14.075 444.177 14.075Z" fill="#415733"/>
<defs>
<filter id="filter0_d" x="0" y="0" width="458" height="60" filterUnits="userSpaceOnUse" color-interpolation-filters="sRGB">
<feFlood flood-opacity="0" result="BackgroundImageFix"/>
<feColorMatrix in="SourceAlpha" type="matrix" values="0 0 0 0 0 0 0 0 0 0 0 0 0 0 0 0 0 0 127 0"/>
<feOffset dy="4"/>
<feGaussianBlur stdDeviation="2"/>
<feColorMatrix type="matrix" values="0 0 0 0 0 0 0 0 0 0 0 0 0 0 0 0 0 0 0.25 0"/>
<feBlend mode="normal" in2="BackgroundImageFix" result="effect1_dropShadow"/>
<feBlend mode="normal" in="SourceGraphic" in2="effect1_dropShadow" result="shape"/>
</filter>
</defs>
</svg>
